<svg width="298" height="356" viewBox="0 0 298 356" fill="none" xmlns="http://www.w3.org/2000/svg">
<path d="M296.448 235.973C297.95 231.938 298.256 227.243 297.376 221.649C296.238 214.343 290.099 207.009 278.959 207.047C277.467 207.056 275.927 207.181 274.244 207.439L235.048 213.559C244.075 201.3 245.92 185.053 245.92 173.779V173.167C246.016 170.251 245.882 167.085 245.433 163.624C245.413 163.442 245.385 163.28 245.366 163.098C245.184 161.434 245.031 160.487 245.031 160.487H245.022C243.625 149.691 242.793 143.323 241.292 131.599L238.49 109.94L222.588 113.106C221.823 107.158 219.088 85.3841 219.088 85.3841L230.984 82.6205L227.226 53.0917C226.384 46.465 225.648 40.7753 224.548 32.2935C220.762 3.05155 202.077 -0.0275474 194.226 0.000183642C191.424 0.00974607 188.536 0.392243 185.601 1.15724C162.383 7.21026 138.639 13.8275 115.049 20.8176L98.7259 25.6562C98.7259 25.6562 101.193 48.4052 101.48 50.9488C100.524 50.9106 99.577 50.901 98.6016 50.901C92.1087 50.9297 85.4533 51.9624 79.3524 53.9418C33.95 68.6297 13.3143 121.586 16.3743 166.348C18.7362 199.75 34.4855 227.596 56.8329 242.217C55.8575 242.924 54.9587 243.708 54.1746 244.55C49.7567 243.326 45.2815 242.704 40.8636 242.714C38.5208 242.723 36.1589 242.905 33.8544 243.268C22.3221 245.066 13.4768 249.455 7.57683 256.312C3.10161 261.494 -1.73698 270.837 0.615379 285.869C1.84893 293.806 6.08509 300.777 13.1804 306.581C14.6722 307.805 16.2308 308.962 17.8373 310.033C15.265 311.582 13.2569 313.81 11.0289 316.756C9.5945 318.649 5.20534 324.444 6.36239 331.874C7.27082 337.736 11.1532 341.723 13.9837 344.2C14.2227 344.41 14.4618 344.601 14.7104 344.783C22.4464 350.712 31.8654 353.705 42.6996 353.667C45.8648 353.648 49.2021 353.37 52.6159 352.844C67.8679 350.463 77.985 342.125 81.9056 329.483L83.6746 333.346C85.2429 336.77 90.2153 344.448 103.421 344.401C105.62 344.401 107.982 344.2 110.65 343.779C115.565 343.014 120.614 341.723 124.305 337.497C124.315 337.487 124.325 337.468 124.344 337.449C125.625 335.976 126.619 334.293 127.346 332.381C130.569 335.594 134.881 337.334 139.672 337.324C140.313 337.315 140.973 337.286 141.633 337.219C141.881 337.2 142.13 337.162 142.378 337.114L154.389 335.249C154.446 336.177 154.542 337.124 154.695 338.118C154.723 338.348 154.771 338.654 155.125 340.48C155.747 343.76 157.047 346.743 159.007 349.316C162.24 353.581 167.279 356.019 172.825 356C173.447 356 174.087 355.962 174.728 355.895C174.986 355.866 175.244 355.837 175.503 355.799C187.178 353.973 195.813 349.019 201.159 341.073C201.178 341.063 201.187 341.044 201.197 341.035C203.731 337.238 205.366 332.572 206.102 327.169L241.866 321.585C247.316 320.734 251.83 317.941 254.651 313.839C257.644 316.459 262.205 318.534 269.148 318.515C271.452 318.506 273.996 318.276 276.912 317.817C290.242 315.742 292.518 306.285 292.901 303.435C292.977 302.871 293.006 302.307 293.015 301.743C293.044 300.413 292.901 298.96 292.547 296.713L285.834 254.389C285.805 254.179 285.767 253.978 285.729 253.778L284.438 247.457C289.984 245.735 294.364 241.595 296.448 235.972V235.973ZM191.323 21.0433C199.329 18.9835 203.372 23.2398 204.869 35.1134C206.482 47.9013 207.259 54.354 208.853 67.1409C198.708 69.4731 193.655 70.6388 183.511 73.0686C183.103 69.4732 182.89 67.6859 182.461 64.0895C182.092 60.8631 180.576 59.3284 178.399 59.8916C172.277 61.3881 169.226 62.1455 163.104 63.6812C164.484 75.5357 165.145 81.4252 166.505 93.2798C179.468 90.2093 185.939 88.7319 198.921 85.8173C200.632 99.7315 201.447 106.651 203.177 120.488C190.02 123.209 183.471 124.608 170.411 127.387C171.596 137.707 172.18 142.837 173.345 153.119C173.734 156.326 175.23 157.88 177.485 157.433C183.898 156.17 187.086 155.528 193.499 154.304C195.772 153.877 196.842 151.758 196.472 148.571C196.045 144.956 195.83 143.168 195.403 139.592C205.723 137.493 210.872 136.483 221.231 134.461C222.844 147.308 223.641 153.721 225.274 166.547C226.751 178.441 223.797 184.174 215.479 185.651C197.114 188.838 178.806 192.084 160.48 195.348C152.162 196.845 148.003 192.569 146.798 181.142C142.873 144.411 138.947 107.661 135.002 70.9113C130.94 72.0196 128.9 72.5436 124.819 73.6319C123.42 60.2617 122.74 53.5756 121.34 40.2628C144.564 33.461 167.923 27.0485 191.323 21.0433ZM49.8112 338.309C38.6758 340.006 29.6947 338.219 22.8652 332.946C21.0818 331.374 20.1189 330.119 19.9764 329.183C19.8339 328.247 20.4813 326.836 21.9214 324.95C23.3606 323.064 24.3398 322.011 24.8571 321.788C25.3754 321.568 25.8841 321.419 26.388 321.342C26.8901 321.266 27.7641 321.452 29.0091 321.9C34.9359 325.111 39.9112 326.411 43.9341 325.797C47.9561 325.184 50.4404 323.884 51.3881 321.895C52.3338 319.907 52.5862 317.456 52.1416 314.544C51.6979 311.632 50.2616 309.44 47.8318 307.966C45.4029 306.492 41.5311 304.848 36.2201 303.032C30.9082 301.219 26.1107 298.545 21.8229 295.011C17.5371 291.48 15.0613 287.53 14.3948 283.162C13.212 275.398 14.4493 269.411 18.107 265.2C21.7656 260.99 27.6512 258.265 35.7697 257.029C40.7259 256.273 45.7491 256.679 50.8382 258.244C53.3464 258.784 54.6747 259.539 54.8219 260.509C54.8324 260.579 54.843 260.649 54.8535 260.718C54.8439 261.144 54.8678 261.779 54.9233 262.622C54.1277 266.574 53.4134 268.882 52.7813 269.545C52.5872 269.718 52.1129 269.86 51.3584 269.974C50.6039 270.089 48.5232 269.821 45.117 269.17C41.7109 268.518 38.8766 268.365 36.6131 268.71C34.3507 269.055 32.5807 270.106 31.305 271.86C30.0285 273.616 29.602 275.88 30.0246 278.652C30.4463 281.425 32.1226 283.742 35.0526 285.601C37.9806 287.46 42.3238 289.193 48.0814 290.798C54.1889 292.777 58.8936 295.075 62.1965 297.691C65.4984 300.31 67.5409 304.184 68.3222 309.313C70.9212 326.367 64.7487 336.032 49.8093 338.308L49.8112 338.309ZM120.749 248.23L113.867 324.611C113.75 326.262 113.442 327.371 112.942 327.944C112.44 328.516 110.754 329.022 107.881 329.459C101.202 330.477 97.3002 329.723 96.1814 327.2L64.0449 256.658C63.9301 256.393 63.8527 256.12 63.8096 255.842C63.5036 253.832 65.791 252.454 70.6774 251.71C73.0479 251.349 74.9413 251.363 76.3603 251.748C77.7784 252.136 78.8313 253.127 79.5159 254.725L102.615 307.917L107.018 250.003C107.083 248.504 107.543 247.422 108.398 246.76C109.252 246.098 110.793 245.597 113.021 245.257C117.832 244.524 120.392 245.163 120.698 247.174C120.752 247.521 120.766 247.873 120.749 248.229V248.23ZM101.615 231.964C65.3502 238.319 39.3279 202.987 36.7623 164.507C34.2943 126.416 52.3099 83.8742 86.0088 73.1078C103.364 67.5693 128.337 72.7196 130.63 98.1786C131.524 106.535 131.952 110.694 132.846 118.992C123.109 121.344 118.231 122.548 108.553 124.92C108.164 121.558 108.028 119.809 107.698 116.428C106.804 107.469 96.7369 106.497 89.916 108.44C71.123 113.745 63.3497 137.048 65.1761 157.609C66.8285 176.849 79.8296 199.49 98.7584 196.342C117.901 193.155 128.455 170.222 128.455 170.222C135.237 180.367 138.657 185.478 145.556 195.836C136.499 214.531 120.68 228.641 101.616 231.965L101.615 231.964ZM159.994 319.817L139.63 322.92C138.327 323.049 137.359 322.734 136.731 321.979C136.08 321.086 135.555 319.322 135.153 316.687C134.561 312.804 135.271 310.71 137.283 310.404L141.162 309.813L133.065 256.677L129.832 257.169C128.384 257.32 127.345 257.016 126.717 256.261C126.066 255.368 125.545 253.639 125.155 251.072C124.563 247.191 125.453 245.069 127.822 244.708L146.893 241.802C150.053 241.32 151.798 242.154 152.125 244.303C153.065 250.474 152.278 253.749 149.764 254.131L147.072 254.542L151.317 275.175L156.354 307.499L159.586 307.006C162.11 306.693 163.537 307.611 163.864 309.759C164.66 315.952 163.37 319.304 159.995 319.819L159.994 319.817ZM191.467 324.596C191.061 328.204 190.139 331.075 188.701 333.211C185.639 337.72 180.3 340.556 172.687 341.716C171.384 341.844 170.433 341.51 169.834 340.714C169.234 339.919 168.833 338.969 168.628 337.866C168.422 336.761 168.31 336.14 168.29 336.002C167.993 334.061 168.054 332.649 168.471 331.772C168.889 330.892 169.707 330.359 170.929 330.173C174.089 329.692 175.891 327.289 176.335 322.966C176.778 318.642 176.176 311.072 174.527 300.259L165.62 241.073C165.388 239.549 165.611 238.486 166.291 237.885C166.972 237.286 168.388 236.82 170.544 236.492C175.715 235.705 178.532 236.589 178.996 239.141L185.457 269.971L189.689 297.735C191.474 309.451 192.066 318.403 191.466 324.596H191.467ZM242.766 305.237C242.314 306.619 241.119 307.455 239.18 307.752L201.253 313.531L199.277 312.129L187.614 235.596L225.864 229.767C228.961 229.367 230.676 230.241 231.004 232.388C231.217 234.271 231.334 235.761 231.354 236.857C231.374 237.955 231.086 239.079 230.49 240.233C229.895 241.388 228.878 242.076 227.442 242.294L203.414 245.955L207.405 264.18L228.199 261.012C231.072 260.574 232.699 261.603 233.08 264.099C233.597 267.497 233.737 269.852 233.496 271.165C233.255 272.479 232.236 273.272 230.441 273.546L209.323 276.764L212.698 298.912L237.587 295.12C239.32 294.928 240.556 295.076 241.293 295.566C242.029 296.058 242.487 296.893 242.667 298.07C243.185 301.467 243.218 303.856 242.767 305.237H242.766ZM279.279 234.394L267.195 236.129L271.381 257.091L277.938 299.397C278.139 300.715 278.234 301.586 278.226 302.012C278.087 303.027 276.76 303.726 274.246 304.108C266.99 305.214 263.168 304.483 262.778 301.919L253.096 238.384L239.628 240.436C237.894 240.63 236.71 240.348 236.082 239.593C235.288 238.721 234.701 237.037 234.319 234.542C233.718 230.59 234.637 228.428 237.08 228.056L276.299 222.08C280.465 221.445 282.713 222.203 283.041 224.351C283.981 230.522 282.727 233.869 279.279 234.393V234.394Z" fill="white"/>
</svg>
